<svg width="21" height="20" viewBox="0 0 21 20" fill="none" xmlns="http://www.w3.org/2000/svg">
<g clip-path="url(#clip0_1_14)">
<path d="M18.2199 14.13C18.2199 15.38 17.857 16.387 17.132 17.072C16.405 17.758 15.398 18.122 14.188 18.122H5.96195C4.75195 18.122 3.74395 17.758 3.01795 17.072C2.29295 16.347 1.92795 15.339 1.92795 14.089V5.822C1.92795 4.612 5.19195 0.702 5.91695 -0.0240002C2.41195 -0.0220002 0.0749512 2.316 0.0749512 5.822V14.088C0.0749512 15.822 0.638951 17.315 1.76795 18.403C2.85695 19.451 4.30795 19.976 5.96195 19.976H14.188C15.921 19.976 17.3729 19.411 18.4209 18.403C19.5099 17.355 20.075 15.863 20.075 14.129V5.822C20.075 4.129 19.51 2.677 18.462 1.629C17.414 0.54 15.92 -0.0240002 14.228 -0.0240002H5.91995L3.01795 2.88C3.70395 2.194 4.75195 1.831 5.96195 1.831H14.268C15.478 1.831 16.486 2.194 17.212 2.921C17.898 3.646 18.2999 4.654 18.2999 5.823V14.13H18.2199ZM15.357 5.943C15.5133 5.94757 15.6689 5.92073 15.8147 5.86407C15.9605 5.8074 16.0934 5.72207 16.2056 5.61311C16.3178 5.50415 16.4069 5.37379 16.4679 5.22974C16.5288 5.0857 16.5601 4.93089 16.5601 4.7745C16.5601 4.61811 16.5288 4.4633 16.4679 4.31926C16.4069 4.17521 16.3178 4.04485 16.2056 3.93589C16.0934 3.82693 15.9605 3.7416 15.8147 3.68493C15.6689 3.62827 15.5133 3.60143 15.357 3.606C15.053 3.61489 14.7644 3.7419 14.5525 3.96007C14.3407 4.17823 14.2221 4.47038 14.2221 4.7745C14.2221 5.07862 14.3407 5.37077 14.5525 5.58893C14.7644 5.8071 15.053 5.93411 15.357 5.943V5.943ZM10.075 13.283C9.1991 13.2791 8.36024 12.9294 7.74091 12.31C7.12158 11.6907 6.7719 10.8519 6.76795 9.976C6.7719 9.10014 7.12158 8.26129 7.74091 7.64196C8.36024 7.02263 9.1991 6.67295 10.075 6.669C10.9508 6.67295 11.7897 7.02263 12.409 7.64196C13.0283 8.26129 13.378 9.10014 13.382 9.976C13.3777 10.8517 13.0279 11.6903 12.4086 12.3094C11.7893 12.9285 10.9506 13.2781 10.075 13.282V13.283ZM10.075 4.815C7.25295 4.815 4.91395 7.113 4.91395 9.976C4.9121 10.6543 5.04434 11.3262 5.30305 11.9532C5.56176 12.5802 5.94184 13.1499 6.42145 13.6295C6.90106 14.1091 7.47074 14.4892 8.09774 14.7479C8.72473 15.0066 9.39668 15.1388 10.075 15.137C12.938 15.137 15.235 12.798 15.235 9.977C15.235 7.153 12.897 4.815 10.075 4.815V4.815Z" fill="black"/>
</g>
<defs>
<clipPath id="clip0_1_14">
<rect width="21" height="20" fill="white"/>
</clipPath>
</defs>
</svg>
