<svg width="25" height="26" viewBox="0 0 25 26" fill="none" xmlns="http://www.w3.org/2000/svg">
<path d="M22.5581 18.3689C22.5581 19.9939 22.1087 21.3031 21.211 22.1936C20.3109 23.0854 19.0642 23.5585 17.5661 23.5585H7.38152C5.88342 23.5585 4.63542 23.0854 3.73656 22.1936C2.83894 21.2511 2.38704 19.9406 2.38704 18.3156V7.56855C2.38704 5.99555 6.42818 0.91255 7.3258 -0.03125C2.98628 -0.02865 0.0928497 3.01075 0.0928497 7.56855V18.3144C0.0928497 20.5686 0.791135 22.5094 2.18895 23.9238C3.53723 25.2862 5.33371 25.9688 7.38152 25.9688H17.5661C19.7117 25.9688 21.5094 25.2342 22.8069 23.9238C24.1552 22.5614 24.8548 20.6218 24.8548 18.3676V7.56855C24.8548 5.36765 24.1552 3.48005 22.8577 2.11765C21.5602 0.70195 19.7105 -0.03125 17.6156 -0.03125H7.32952L3.73656 3.74395C4.5859 2.85215 5.88342 2.38025 7.38152 2.38025H17.6651C19.1632 2.38025 20.4112 2.85215 21.3101 3.79725C22.1594 4.73975 22.6571 6.05015 22.6571 7.56985V18.3689H22.5581ZM19.0134 7.72585C19.207 7.7318 19.3997 7.6969 19.5802 7.62324C19.7606 7.54957 19.9252 7.43863 20.0641 7.29699C20.203 7.15535 20.3134 6.98588 20.3888 6.79861C20.4642 6.61135 20.5031 6.41011 20.5031 6.2068C20.5031 6.00349 20.4642 5.80225 20.3888 5.61498C20.3134 5.42772 20.203 5.25825 20.0641 5.11661C19.9252 4.97497 19.7606 4.86403 19.5802 4.79036C19.3997 4.7167 19.207 4.6818 19.0134 4.68775C18.6371 4.69931 18.2798 4.86442 18.0175 5.14804C17.7551 5.43165 17.6084 5.81145 17.6084 6.2068C17.6084 6.60215 17.7551 6.98194 18.0175 7.26556C18.2798 7.54918 18.6371 7.71429 19.0134 7.72585ZM12.4738 17.2678C11.3894 17.2627 10.3508 16.8081 9.58404 16.003C8.81725 15.1979 8.38431 14.1074 8.37942 12.9688C8.38431 11.8301 8.81725 10.7396 9.58404 9.93449C10.3508 9.12937 11.3894 8.67478 12.4738 8.66965C13.5582 8.67478 14.5968 9.12937 15.3636 9.93449C16.1304 10.7396 16.5633 11.8301 16.5682 12.9688C16.563 14.1071 16.1299 15.1973 15.3631 16.0022C14.5964 16.807 13.558 17.2614 12.4738 17.2665V17.2678ZM12.4738 6.25945C8.9799 6.25945 6.08399 9.24685 6.08399 12.9688C6.08171 13.8505 6.24542 14.724 6.56573 15.5391C6.88604 16.3542 7.35662 17.0948 7.95042 17.7183C8.54423 18.3418 9.24954 18.8359 10.0258 19.1722C10.8021 19.5085 11.634 19.6805 12.4738 19.678C16.0185 19.678 18.8624 16.6374 18.8624 12.97C18.8624 9.29885 15.9677 6.25945 12.4738 6.25945Z" fill="white"/>
</svg>
