<svg width="26" height="26" viewBox="0 0 26 26" fill="none" xmlns="http://www.w3.org/2000/svg">
<path d="M26 3.07694C25.0455 3.60194 24.0148 3.95174 22.9385 4.10794C24.0402 3.29564 24.883 2.00844 25.2842 0.477441C24.2534 1.22724 23.1111 1.77714 21.8977 2.07084C20.9227 0.795941 19.5366 0.00244141 18.0034 0.00244141C15.0587 0.00244141 12.6726 2.93944 12.6726 6.56364C12.6726 7.07604 12.7182 7.57594 12.8095 8.05714C8.37719 7.78214 4.44762 5.17014 1.81755 1.19594C1.3606 2.16464 1.09662 3.29564 1.09662 4.49534C1.09662 6.76994 2.03587 8.78204 3.46766 9.95684C2.59422 9.92544 1.77181 9.62554 1.05088 9.13814V9.21934C1.05088 12.3999 2.88875 15.0556 5.33088 15.6555C4.88401 15.8055 4.41195 15.8867 3.92445 15.8867C3.5793 15.8867 3.24926 15.8429 2.91922 15.7679C3.59961 18.3736 5.5696 20.2733 7.89985 20.3295C6.07213 22.0917 3.77722 23.1415 1.27423 23.1415C0.842796 23.1415 0.421271 23.1102 -9.15527e-05 23.0477C2.36591 24.9161 5.16847 25.9971 8.17918 25.9971C17.9882 25.9971 23.3547 15.9928 23.3547 7.31954C23.3547 7.03214 23.3496 6.75094 23.3395 6.46974C24.3804 5.55134 25.2842 4.39534 26 3.07694Z" fill="white"/>
</svg>
